<mxfile host="app.diagrams.net" modified="2023-11-05T13:29:48.051Z" agent="Mozilla/5.0 (Windows NT 10.0; Win64; x64) AppleWebKit/537.36 (KHTML, like Gecko) Chrome/116.0.5845.931 YaBrowser/23.9.3.931 Yowser/2.5 Safari/537.36" version="22.0.8" etag="oe0S8l3LFZ2dJ1TV1R0e" type="github">
  <diagram name="Страница — 1" id="-yY6A5mDarkDkRwkj0sm">
    <mxGraphModel>
      <root>
        <mxCell id="0" />
        <mxCell id="1" parent="0" />
      </root>
    </mxGraphModel>
  </diagram>
</mxfile>
